# xmcd
#
# Track frame offsets: 
#        150
#        17032
#        31756
#        41681
#        52778
#        62117
#        77354
#        88351
#        100741
#        108243
#
# Disc length: 1645 seconds
#
# Revision: 4
# Processed by: cddbd v1.5PL3 Copyright (c) Steve Scherf et al.
# Submitted via: ExactAudioCopy v0.90b4
#
DISCID=6e066b0a
DTITLE=DYLAN Bob - Nashville Skyline
DYEAR=1969
DGENRE=Country
TTITLE0=Girl From The North Country (With Johnny Cash)
TTITLE1=Nashville Skyline Rag
TTITLE2=To Be Alone With You
TTITLE3=I Threw It All Away
TTITLE4=Peggy Day
TTITLE5=Lay Lady Lay
TTITLE6=One More Night
TTITLE7=Tell Me That It Isn't True
TTITLE8=Country Pie
TTITLE9=Tonight I'll Be Staying Here With You
EXTD=YEAR: 1969 ID3G:   2
EXTT0=
EXTT1=
EXTT2=
EXTT3=
EXTT4=
EXTT5=
EXTT6=
EXTT7=
EXTT8=
EXTT9=
PLAYORDER=
